
<svg xmlns="http://www.w3.org/2000/svg" width="48.298" height="48.3" viewBox="0 0 48.298 48.3">
  <path d="M495.589,195.429a2.1,2.1,0,0,0-.061,4.2h.061a18.867,18.867,0,0,1,18.9,18.9,2.1,2.1,0,0,0,4.2.059v-.059A23.132,23.132,0,0,0,495.589,195.429Zm-17.35,4.208a2.472,2.472,0,0,0-.8.065,8.152,8.152,0,0,0-3.809,2.289c-4.437,4.437-6.791,11.917,9.893,28.6s24.164,14.332,28.6,9.893a8.152,8.152,0,0,0,2.291-3.818,2.466,2.466,0,0,0-1.151-2.724c-2.369-1.386-7.482-4.383-9.853-5.771a2.464,2.464,0,0,0-2.509.013l-3.921,2.337a2.459,2.459,0,0,1-2.78-.164,64.337,64.337,0,0,1-5.584-4.87,63.572,63.572,0,0,1-4.868-5.582,2.455,2.455,0,0,1-.164-2.78l2.337-3.921a2.475,2.475,0,0,0,.008-2.518l-5.758-9.832A2.487,2.487,0,0,0,478.239,199.637Zm17.35,4.191a2.1,2.1,0,0,0-.061,4.2h.061a10.467,10.467,0,0,1,10.5,10.5,2.1,2.1,0,0,0,4.2.059v-.059A14.732,14.732,0,0,0,495.589,203.829Zm0,8.4a2.1,2.1,0,0,0-.061,4.2h.061a2.067,2.067,0,0,1,2.1,2.1,2.1,2.1,0,0,0,4.2.059v-.059A6.332,6.332,0,0,0,495.589,212.229Z" transform="translate(-470.39 -195.429)" fill="#002280"/>
</svg>