<svg xmlns="http://www.w3.org/2000/svg" width="28.046" height="20.996" viewBox="0 0 28.046 20.996"><g transform="translate(0 -0.956)"><g transform="translate(0 9.487)"><path d="M26.17,27.188a1.866,1.866,0,0,0-.841.208l-.681.416a1.878,1.878,0,0,0-1.719-1.125,1.858,1.858,0,0,0-.841.208l-1.074.608a1.854,1.854,0,0,0-2.514-.822l-3.033,1.854.285.09a5.036,5.036,0,0,1,1.366.631,3,3,0,0,1,1.043,1.173,2.583,2.583,0,0,1,.248,1.118,2.885,2.885,0,0,1-2.884,2.884h-.039l-1.518-.149-4.857-.623h0l.2-1.545,4.834.62,1.4.137a1.323,1.323,0,0,0,1.305-1.324,1.011,1.011,0,0,0-.1-.449,1.247,1.247,0,0,0-.287-.376,3.067,3.067,0,0,0-1.168-.607c-.676-.2-1.606-.522-2.6-.861s-2.04-.7-2.932-.989c-.594-.192-1.121-.353-1.5-.45A5.531,5.531,0,0,0,7.095,27.8c-.389.057-.889.136-1.425.225l-.478.08A2.748,2.748,0,0,0,2.67,26C2.625,26,0,25.546,0,32s2.625,6.466,2.67,6.466a2.684,2.684,0,0,0,2.413-1.792c3.046.65,8.3,1.74,9.308,1.74,1.8,0,10.438-6.148,12.9-7.846a1.807,1.807,0,0,0,.751-1.5A1.875,1.875,0,0,0,26.17,27.188Z" transform="translate(0 -26)" fill="#fff"/></g><circle cx="4" cy="4" r="4" transform="translate(8.84 0.956)" fill="#fff"/></g></svg>