
<svg xmlns="http://www.w3.org/2000/svg" width="48.748" height="46.534" viewBox="0 0 48.748 46.534">
  <path d="M460.489,301.464a2.216,2.216,0,0,0-2.214,2.216v6.647l-4.433,11.079v4.433h2.216v11.079a4.465,4.465,0,0,0,4.43,4.43h8.863v-4.43h-8.863V325.839h10.1a8.833,8.833,0,0,1,7.631-4.433h-19.6l4.089-10.226V305.9H489.3v5.284l4.089,10.226h4.774l-4.433-11.079V303.68a2.217,2.217,0,0,0-2.216-2.216Zm6.649,6.649a2.215,2.215,0,1,0,2.214,2.214A2.216,2.216,0,0,0,467.138,308.113Zm6.647,0A2.215,2.215,0,1,0,476,310.327,2.216,2.216,0,0,0,473.784,308.113Zm4.433,17.726a4.465,4.465,0,0,0-4.433,4.43v13.3A4.466,4.466,0,0,0,478.217,348H498.16a4.465,4.465,0,0,0,4.43-4.433v-13.3a4.465,4.465,0,0,0-4.43-4.43Zm0,4.43H498.16v13.3H478.217v-6.647h15.51v-4.433h-15.51Z" transform="translate(-453.842 -301.464)" fill="#002280"/>
</svg>