
<svg xmlns="http://www.w3.org/2000/svg" width="48.4" height="55" viewBox="0 0 48.4 55">
  <path d="M495.09,129.232a24.233,24.233,0,0,0-24.2,24.2v8.8a4.4,4.4,0,0,0,4.4,4.4h4.4v-11a4.392,4.392,0,0,0-4.272-4.387,19.792,19.792,0,0,1,39.343,0,4.391,4.391,0,0,0-4.27,4.387v11h4.4a4.4,4.4,0,0,0,4.4-4.4v-8.8A24.235,24.235,0,0,0,495.09,129.232Zm15.4,41.8v2.2a4.367,4.367,0,0,1-4.4,4.4h-7.2a4.4,4.4,0,1,0,0,4.4h7.194a8.833,8.833,0,0,0,8.8-8.8v-2.2Z" transform="translate(-470.89 -129.232)" fill="#002280"/>
</svg>