<svg xmlns="http://www.w3.org/2000/svg" width="17.038" height="24.117" viewBox="0 0 17.038 24.117"><g transform="translate(-0.089 0)"><path d="M15.907,57.864h-.035a1.27,1.27,0,0,0-1.236,1.3v1.016a.367.367,0,0,1-.734,0V58.308a1.211,1.211,0,1,0-2.411,0V60.3a.367.367,0,0,1-.734,0V57.762a1.269,1.269,0,0,0-1.225-1.312H9.5a1.227,1.227,0,0,0-1.2,1.257v2.855a.367.367,0,0,1-.734,0V57.789c0-.009,0-.018,0-.028s0-.045,0-.067V51.213a1.284,1.284,0,0,0-1.224-1.33,1.285,1.285,0,0,0-1.225,1.329L5.1,61.96a.367.367,0,0,1-.65.233L3.17,60.631A1.954,1.954,0,0,0,1.791,59.9a1.912,1.912,0,0,0-1.437.515l-.014.013-.251.21,4.45,8.551A3.947,3.947,0,0,0,8,71.386h5.144A4.148,4.148,0,0,0,17.122,67.1c0-1.249,0-2.186,0-2.941,0-2.018,0-2.76,0-4.982a1.267,1.267,0,0,0-1.217-1.313Zm0,0" transform="translate(0 -47.269)" fill="#fff"/><path d="M48.96,4.072a.367.367,0,0,0,.367-.367,2.958,2.958,0,1,1,5.915,0,.367.367,0,1,0,.734,0,3.691,3.691,0,1,0-7.383,0A.367.367,0,0,0,48.96,4.072Zm0,0" transform="translate(-45.962 0)" fill="#fff"/></g></svg>