<svg xmlns="http://www.w3.org/2000/svg" width="48.748" height="48.75" viewBox="0 0 48.748 48.75">
  <path d="M468.06,428.118A4.062,4.062,0,0,0,464,432.181v18.281a2.031,2.031,0,0,0,0,4.063h28.438a2.031,2.031,0,0,0,0-4.063V432.181a4.062,4.062,0,0,0-4.063-4.063H474.154v24.375h-4.063V428.118ZM457.9,434.212a4.062,4.062,0,0,0-4.063,4.063v26.4a4.062,4.062,0,0,0,4.063,4.063h40.622a4.061,4.061,0,0,0,4.063-4.063v-26.4a4.061,4.061,0,0,0-4.063-4.063H496.5v4.063h2.029v22.341H457.9V438.275h2.031v-4.063Zm20.312,28.436a2.031,2.031,0,1,1-2.031,2.031A2.032,2.032,0,0,1,478.217,462.648ZM468.06,472.805a2.031,2.031,0,0,0-.058,4.061.271.271,0,0,0,.058,0h20.312a2.031,2.031,0,1,0,.058-4.061H468.06Z" transform="translate(-453.842 -428.118)" fill="#002280"/>
</svg>