<svg xmlns="http://www.w3.org/2000/svg" width="38.577" height="38.577" viewBox="0 0 38.577 38.577">
  <path d="M475.665,184.26a8.573,8.573,0,1,0,8.574,8.572A8.6,8.6,0,0,0,475.665,184.26Zm0,4.287a4.286,4.286,0,1,1-4.285,4.285A4.254,4.254,0,0,1,475.665,188.547Zm0,19.288a34.152,34.152,0,0,0-11.9,2.349,17.871,17.871,0,0,0-4.892,2.729,6.046,6.046,0,0,0-2.5,4.566v5.359h38.577v-5.359a6.046,6.046,0,0,0-2.5-4.566,17.881,17.881,0,0,0-4.894-2.729A34.137,34.137,0,0,0,475.665,207.835Zm0,4.287a31.064,31.064,0,0,1,10.328,2.047,14.4,14.4,0,0,1,3.72,2.038c.81.674.954,1.133.954,1.272v1.072h-30v-1.072c0-.14.146-.6.954-1.272a14.387,14.387,0,0,1,3.722-2.038A31.063,31.063,0,0,1,475.665,212.121Z" transform="translate(-456.377 -184.26)" fill="#002280"/>
</svg>