<svg xmlns="http://www.w3.org/2000/svg" width="24.199" height="26.138" viewBox="0 0 24.199 26.138"><path d="M39.793,5.631a12.031,12.031,0,0,0-6.974-3.568l.755-.755A.766.766,0,0,0,32.49.226L30.551,2.165a.766.766,0,0,0,0,1.083L32.49,5.187A.766.766,0,0,0,33.573,4.1L33.14,3.67a10.56,10.56,0,1,1-5.6.414.766.766,0,1,0-.515-1.442A12.1,12.1,0,1,0,39.793,5.631Z" transform="translate(-18.993 -0.001)" fill="#fff"/><path d="M127.982,158.457a7.54,7.54,0,1,0,7.54,7.54A7.549,7.549,0,0,0,127.982,158.457Zm4.477,6.12-5.4,5.4a1.161,1.161,0,0,1-1.642,0l-2.064-2.064a1.161,1.161,0,0,1,1.642-1.642l1.243,1.243,4.581-4.581a1.161,1.161,0,0,1,1.642,1.642Zm0,0" transform="translate(-115.764 -151.801)" fill="#fff"/></svg>